<?xml version="1.0" standalone="no"?>
<!DOCTYPE svg PUBLIC "-//W3C//DTD SVG 20010904//EN"
 "http://www.w3.org/TR/2001/REC-SVG-20010904/DTD/svg10.dtd">
<svg version="1.0" xmlns="http://www.w3.org/2000/svg"
 width="1020.000000pt" height="939.000000pt" viewBox="0 0 1020.000000 939.000000"
 preserveAspectRatio="xMidYMid meet">
<g transform="translate(0.000000,939.000000) scale(0.040000,-0.040000)"
fill="#000000" stroke="none">
<path d="M0 11738 l0 -11738 924 0 c604 0 929 9 939 26 9 14 34 22 57 18 22
-3 45 13 50 37 6 31 -7 44 -44 44 -47 0 -51 10 -37 88 16 81 12 87 -49 87 -73
0 -87 51 -27 100 55 46 45 84 -38 146 -94 70 -107 210 -22 255 41 22 49 44 38
100 -8 41 1 101 22 142 20 38 37 107 37 153 0 59 22 105 75 158 41 41 75 92
75 112 0 21 17 55 39 76 35 35 34 43 -3 84 -29 32 -36 68 -24 121 13 60 6 82
-35 108 -29 17 -52 57 -52 89 0 43 -14 56 -63 56 -35 0 -70 17 -78 37 -8 21
-42 38 -75 38 -33 0 -67 17 -75 38 -8 20 -41 37 -73 37 -34 0 -71 22 -86 51
-23 42 -43 48 -114 35 -66 -13 -89 -7 -101 24 -8 22 -40 40 -70 40 -29 0 -74
23 -98 51 -24 28 -55 44 -69 35 -14 -9 -45 1 -68 21 -24 21 -64 42 -91 47 -64
11 -52 59 16 59 78 0 80 45 2 81 -90 42 -125 39 -154 -13 -41 -70 -117 -6
-109 91 4 55 -5 78 -31 78 -20 0 -71 34 -113 75 -42 41 -97 75 -121 75 -33 0
-54 35 -79 126 -38 138 -73 179 -156 184 -53 2 -55 12 -57 278 -2 298 35 396
139 369 35 -9 51 5 64 59 10 39 75 128 146 197 70 69 143 162 162 207 25 61
45 78 79 67 30 -10 54 3 73 38 19 36 43 48 75 38 32 -11 56 1 75 37 19 36 43
48 75 38 30 -10 55 1 71 29 15 26 57 46 103 48 43 2 99 23 123 45 25 23 63 34
85 26 25 -9 50 5 68 38 19 37 43 49 75 39 32 -11 56 1 75 37 23 43 43 50 104
37 58 -13 83 -6 109 32 21 29 65 49 113 51 44 1 98 17 120 35 27 21 109 32
230 31 206 -1 286 -45 303 -164 12 -85 190 -176 224 -115 15 26 54 43 98 43
65 0 74 9 74 72 0 40 17 105 37 144 21 39 31 91 23 115 -9 31 5 51 49 68 67
25 116 95 116 166 0 51 312 360 363 360 19 0 44 15 55 33 35 58 141 117 210
117 36 0 80 17 98 38 27 33 37 33 71 3 22 -19 97 -43 165 -53 100 -14 146 -38
225 -117 148 -147 177 -171 205 -171 13 0 19 -34 13 -75 -9 -66 -3 -75 51 -75
41 0 70 -21 89 -62 35 -76 71 -81 93 -13 11 36 37 50 95 50 53 0 91 17 112 51
50 81 596 64 585 -18 -9 -65 73 -118 144 -96 44 14 476 -368 476 -421 0 -9 28
-75 63 -146 34 -71 62 -149 62 -174 0 -24 23 -56 50 -71 28 -15 50 -48 50 -74
0 -56 36 -83 120 -92 45 -5 99 34 217 155 105 109 169 157 195 147 25 -9 50 5
67 37 15 29 48 52 74 52 25 0 60 17 77 38 18 21 52 32 77 24 29 -9 54 3 71 35
25 46 32 47 104 11 82 -41 112 -28 127 55 5 27 28 50 50 50 23 0 64 20 91 45
43 39 51 39 64 6 21 -55 68 -48 84 11 7 28 23 50 35 50 12 0 22 17 22 38 0
108 64 237 117 237 30 0 71 23 91 51 27 38 52 47 99 36 78 -20 118 33 59 76
-55 40 0 91 76 71 29 -7 79 4 112 25 64 42 183 39 228 -6 15 -15 64 -28 109
-28 45 0 88 -11 97 -25 8 -14 3 -25 -12 -25 -14 0 -26 -17 -26 -37 0 -23 23
-38 57 -38 70 0 593 -491 593 -557 0 -46 112 -104 152 -79 13 8 58 -20 100
-62 42 -43 96 -77 119 -77 24 0 74 -35 111 -78 57 -65 90 -79 190 -85 116 -6
125 -1 231 116 60 67 128 122 152 122 23 0 49 11 58 25 8 14 42 25 75 25 35 0
72 21 87 50 33 61 164 68 226 12 23 -21 80 -43 126 -49 47 -6 98 -30 115 -53
17 -22 47 -35 67 -27 21 8 51 -2 67 -22 39 -47 110 -46 149 2 18 21 52 32 77
24 30 -10 54 3 73 38 23 42 43 49 112 36 69 -13 89 -6 112 37 24 44 43 50 121
37 103 -17 174 -17 473 1 186 11 209 8 232 -37 15 -27 48 -49 75 -49 26 0 100
-28 165 -62 65 -35 132 -63 150 -63 18 0 46 -23 61 -51 17 -33 43 -46 71 -37
30 9 67 -15 117 -74 92 -110 130 -110 222 0 50 59 87 83 117 74 28 -9 54 4 71
37 15 28 43 51 61 51 18 0 85 28 150 63 65 34 139 62 165 62 26 0 58 19 71 42
27 48 569 68 672 24 38 -16 67 -14 92 7 20 17 42 20 50 6 17 -28 370 -204 410
-204 15 0 39 -21 53 -46 34 -65 269 -62 306 4 16 28 41 39 71 29 32 -10 56 2
75 38 19 36 43 48 75 38 29 -10 55 0 70 27 14 25 60 43 118 47 56 3 108 24
127 49 36 50 477 44 623 -7 41 -15 125 -32 187 -38 62 -6 151 -31 198 -55 94
-48 158 -28 173 54 15 87 469 505 581 536 55 14 123 49 149 75 30 30 80 48
130 46 45 -1 291 -6 548 -9 256 -4 478 -14 492 -23 14 -9 58 -15 96 -13 107 4
212 -18 296 -62 41 -22 92 -40 114 -40 58 0 248 -97 248 -127 0 -14 42 -43 94
-65 51 -21 117 -63 147 -92 29 -29 82 -74 119 -98 36 -25 65 -64 65 -88 0 -48
211 -239 293 -265 40 -13 61 -4 82 35 19 36 43 48 75 38 32 -11 56 1 75 37 19
36 43 48 75 38 30 -10 55 1 71 30 19 32 56 45 138 45 68 1 130 17 158 42 60
54 443 58 525 6 30 -19 105 -38 166 -42 61 -4 129 -23 151 -41 22 -19 74 -36
115 -38 41 -2 88 -17 105 -34 17 -17 50 -31 73 -31 24 0 49 -17 57 -38 8 -20
32 -37 53 -37 53 0 48 94 -6 108 -33 8 -30 12 13 14 38 2 56 19 56 53 0 28 11
50 25 50 14 0 25 -11 25 -25 0 -14 23 -25 50 -25 33 0 50 17 50 50 0 63 74
150 127 150 23 0 56 17 73 38 36 42 178 37 233 -10 19 -15 84 -30 145 -32 139
-4 153 -12 116 -71 -40 -65 -17 -80 73 -49 65 23 99 14 272 -75 108 -56 214
-101 235 -101 21 1 193 -75 382 -168 288 -142 343 -178 344 -226 0 -39 15 -56
49 -56 27 0 125 -73 217 -161 92 -89 177 -156 188 -149 12 7 21 4422 21 9811
l0 9799 -5749 0 c-3245 0 -5754 -9 -5762 -22 -15 -25 95 -146 193 -210 37 -24
68 -59 68 -77 0 -48 92 -124 125 -103 17 10 62 -17 105 -60 79 -82 161 -98
249 -51 139 75 585 65 741 -16 34 -18 76 -26 94 -19 58 22 93 -19 46 -53 -66
-48 -2 -71 113 -40 90 25 104 22 162 -36 34 -35 87 -63 116 -63 32 0 59 -20
67 -49 7 -27 33 -56 59 -64 25 -8 90 -65 144 -126 109 -124 185 -141 317 -71
86 47 442 58 493 16 17 -15 83 -32 146 -38 63 -7 150 -31 194 -54 44 -22 91
-34 105 -26 13 8 50 -14 83 -49 42 -46 85 -64 148 -64 49 0 107 -18 129 -39
24 -25 58 -33 90 -23 28 9 65 5 81 -8 17 -13 87 -32 156 -42 68 -10 137 -28
153 -41 16 -13 65 -28 110 -34 45 -6 93 -22 108 -37 14 -14 55 -26 90 -26 36
0 88 -16 115 -35 28 -20 105 -41 171 -48 66 -7 133 -25 148 -40 15 -15 56 -27
92 -27 36 0 87 -17 114 -37 27 -20 83 -37 125 -37 74 -1 286 -183 286 -246 0
-13 27 -42 60 -64 116 -76 182 -155 261 -314 l79 -160 0 -1893 c0 -1492 -7
-1896 -31 -1906 -17 -7 -76 -99 -131 -204 -83 -161 -94 -199 -69 -239 17 -26
24 -64 17 -84 -15 -38 98 -141 154 -141 18 0 68 -34 110 -75 42 -41 97 -75
122 -75 65 0 79 -24 46 -77 -16 -25 -19 -55 -7 -66 11 -11 26 -5 32 12 18 49
71 37 136 -31 32 -34 76 -62 97 -63 21 0 51 -34 66 -75 18 -48 46 -75 77 -75
56 0 117 -63 143 -145 9 -32 67 -108 128 -168 114 -115 117 -123 115 -318 -2
-109 -66 -269 -109 -269 -10 0 -24 -20 -32 -45 -19 -61 -499 -555 -538 -555
-31 0 -99 -54 -213 -169 -31 -31 -73 -56 -94 -56 -21 0 -96 -57 -166 -127
-140 -139 -168 -249 -84 -327 108 -101 150 -165 167 -258 34 -180 10 -746 -34
-798 -13 -15 -31 -101 -41 -190 -10 -89 -28 -175 -40 -191 -13 -16 -27 -65
-33 -110 -6 -45 -22 -93 -37 -108 -14 -14 -26 -64 -26 -111 0 -63 -13 -88 -48
-97 -39 -10 -46 -29 -35 -93 9 -55 0 -90 -27 -113 -24 -20 -40 -72 -40 -129 0
-99 -34 -149 -59 -85 -17 43 -80 49 -105 10 -9 -14 8 -33 36 -40 75 -20 68
-48 -72 -324 -68 -136 -125 -272 -125 -304 0 -31 -17 -63 -37 -71 -21 -8 -38
-42 -38 -75 0 -33 -17 -67 -37 -75 -21 -8 -38 -41 -38 -74 0 -44 -14 -60 -53
-60 -42 0 -50 -11 -38 -56 8 -35 -5 -80 -35 -119 -39 -51 -48 -54 -48 -19 -1
27 -20 44 -51 44 -63 0 -68 -88 -6 -112 41 -16 41 -18 0 -41 -24 -13 -44 -43
-44 -66 0 -22 -51 -89 -113 -147 -61 -59 -112 -124 -112 -144 0 -21 -34 -73
-75 -115 -41 -42 -75 -97 -75 -121 0 -25 -65 -108 -144 -185 -238 -234 -306
-310 -306 -347 0 -46 -777 -822 -823 -822 -44 0 -68 -21 -304 -259 -105 -105
-204 -191 -222 -191 -35 0 -114 -66 -246 -206 -48 -52 -108 -94 -133 -94 -25
0 -95 -52 -155 -115 -87 -90 -113 -106 -125 -75 -22 57 -92 50 -92 -9 0 -59
-104 -176 -155 -176 -21 0 -70 -31 -110 -69 -40 -38 -89 -70 -110 -71 -21 -1
-69 -4 -107 -6 -43 -3 -106 -38 -161 -92 -49 -48 -110 -87 -134 -87 -25 0 -52
-25 -62 -56 -26 -87 -89 -146 -139 -131 -28 9 -54 -4 -71 -37 -15 -28 -42 -51
-59 -51 -59 0 -426 -202 -463 -255 l-37 -53 -20 54 c-25 67 -62 69 -97 4 -15
-29 -52 -50 -87 -50 -33 0 -70 -16 -81 -35 -11 -19 -48 -39 -82 -44 -47 -6
-63 -24 -64 -71 -1 -49 -12 -61 -55 -57 -34 4 -65 -14 -82 -45 -18 -34 -42
-46 -74 -35 -32 10 -56 -2 -73 -35 -18 -34 -51 -49 -103 -47 -42 1 -89 -11
-105 -27 -16 -16 -54 -29 -86 -29 -31 0 -68 -22 -82 -48 -17 -32 -51 -48 -100
-47 -41 2 -92 -12 -113 -30 -55 -45 -571 -45 -626 0 -21 18 -72 32 -113 30
-49 -1 -83 15 -100 47 -14 26 -46 48 -71 48 -25 0 -110 32 -189 72 -79 40
-164 67 -189 60 -29 -7 -56 7 -74 40 -17 32 -48 50 -81 46 -39 -4 -58 12 -69
57 -10 40 -33 63 -64 63 -27 0 -53 19 -57 43 -11 55 -130 61 -130 7 0 -21 -11
-38 -25 -38 -14 0 -25 11 -25 24 0 36 -104 126 -146 126 -21 0 -118 82 -217
181 -99 100 -193 193 -209 207 -16 13 -52 56 -81 94 -35 46 -67 65 -96 56 -24
-8 -58 3 -76 25 -29 34 -36 34 -76 -1 -40 -37 -47 -36 -82 14 -30 43 -53 51
-112 37 -42 -9 -82 -5 -91 9 -8 14 -88 59 -177 101 -89 42 -162 89 -162 104 0
14 -20 20 -45 12 -32 -10 -70 13 -125 75 -44 50 -91 82 -107 72 -15 -9 -75 34
-137 99 -60 63 -128 115 -152 115 -24 0 -92 51 -150 112 -59 62 -128 113 -154
113 -61 0 -141 88 -142 158 0 41 -16 55 -63 55 -39 0 -75 21 -95 56 -20 35
-55 56 -95 56 -36 0 -56 11 -47 25 32 53 -15 128 -77 120 -44 -6 -91 27 -194
136 -83 89 -155 144 -188 144 -32 0 -54 16 -54 39 0 22 19 37 44 35 81 -9 131
1 131 24 0 13 -31 27 -69 32 -54 6 -70 22 -76 76 -9 79 -55 95 -55 19 0 -27
-9 -50 -20 -50 -31 0 -430 396 -430 426 0 43 -159 246 -205 262 -64 22 -319
294 -320 341 0 23 -34 74 -75 113 -41 38 -75 89 -75 112 0 23 -34 74 -75 113
-41 38 -75 89 -75 112 0 23 -34 74 -75 113 -41 38 -75 89 -75 112 0 22 -28 67
-62 100 -34 32 -62 81 -63 109 0 27 -23 64 -51 82 -35 22 -47 48 -37 80 11 32
-1 56 -36 74 -29 16 -51 53 -51 87 0 32 -17 65 -37 73 -21 8 -38 36 -38 62 0
26 -17 62 -37 79 -21 17 -38 51 -38 75 0 24 -17 58 -39 76 -21 18 -32 48 -25
67 15 37 -97 295 -138 321 -14 8 -17 52 -9 98 13 68 6 89 -35 111 -34 18 -50
51 -49 101 2 41 -13 93 -32 116 -20 24 -36 90 -36 148 -1 58 -17 126 -38 150
-20 25 -37 93 -37 151 -1 61 -18 127 -41 153 -57 66 -67 896 -10 971 20 27 38
69 38 92 1 24 24 55 52 70 109 59 -61 375 -202 375 -30 0 -49 17 -50 44 0 68
-80 155 -161 177 -44 12 -79 41 -87 71 -12 45 -150 183 -183 183 -43 0 -491
476 -479 508 9 23 -5 49 -35 65 -54 29 -69 163 -24 220 35 44 120 214 120 240
0 41 198 221 224 205 15 -9 26 6 26 36 0 28 15 51 34 51 49 0 166 108 166 154
0 24 29 46 73 54 57 12 75 30 81 85 6 51 22 70 60 70 28 0 83 33 121 75 39 41
87 71 107 67 57 -12 224 178 242 274 14 74 6 92 -72 157 -59 49 -83 87 -74
117 8 25 -2 52 -25 65 -35 20 -39 233 -39 2032 l0 2010 79 67 c44 38 71 80 61
96 -10 16 46 93 134 181 84 84 152 163 152 175 0 11 11 21 25 21 14 0 25 -17
25 -37 0 -21 22 -38 50 -38 33 0 50 17 50 49 0 88 108 178 194 161 62 -12 82
-5 105 38 24 44 43 51 113 38 70 -13 89 -7 113 39 24 46 43 52 113 39 68 -13
89 -6 111 33 20 39 49 48 136 45 74 -3 126 10 158 40 35 31 71 39 126 28 62
-12 82 -5 105 38 24 44 43 51 113 38 70 -13 89 -7 113 39 24 46 43 52 113 39
69 -13 89 -6 112 35 19 36 52 51 110 51 46 0 99 18 116 39 26 31 60 36 152 23
104 -14 121 -10 146 37 24 43 43 50 113 37 70 -13 89 -7 113 39 24 46 43 52
113 39 70 -13 89 -6 113 37 25 47 42 51 149 37 107 -15 124 -11 149 36 24 43
43 50 113 37 70 -13 89 -7 113 39 24 46 43 52 113 39 69 -13 89 -6 111 35 22
40 50 49 137 45 75 -3 126 9 158 38 34 31 70 39 125 28 62 -12 82 -5 105 38
24 44 43 51 113 38 70 -13 89 -7 113 39 24 46 43 52 113 39 68 -13 89 -6 111
34 23 43 49 50 173 45 99 -4 159 6 190 32 25 20 77 39 117 41 39 2 90 18 112
37 23 19 73 36 113 38 39 2 90 19 113 37 22 19 61 31 86 27 61 -11 147 38 147
83 0 32 -718 37 -5762 37 l-5763 0 0 -11737z"/>
<path d="M12638 23083 c-55 -7 -112 -22 -127 -35 -37 -30 -330 -123 -387 -123
-25 0 -77 -16 -116 -35 -84 -41 -236 -91 -358 -117 -48 -10 -121 -30 -162 -45
-68 -24 -178 -58 -738 -226 -89 -27 -196 -60 -237 -73 -42 -14 -143 -44 -225
-67 -83 -23 -187 -58 -233 -77 -45 -19 -101 -35 -125 -36 -23 0 -121 -28 -217
-63 -97 -35 -226 -73 -288 -85 -62 -12 -197 -50 -300 -85 -389 -131 -590 -196
-675 -217 -197 -49 -451 -130 -595 -190 -45 -19 -104 -34 -130 -34 -27 0 -91
-15 -143 -34 -216 -77 -278 -96 -457 -142 -103 -27 -227 -65 -275 -85 -48 -21
-166 -56 -262 -78 -97 -23 -200 -57 -231 -76 -30 -19 -93 -35 -139 -35 -184 0
-170 171 -172 -2101 -2 -1282 6 -2036 21 -2036 13 0 63 31 110 69 176 141 539
406 734 534 111 72 222 147 248 165 44 31 46 89 43 1144 -2 612 -10 1154 -18
1204 -16 98 30 146 140 146 28 0 71 10 95 23 24 12 111 41 194 64 82 23 234
70 337 105 103 34 233 71 288 82 55 12 161 45 237 74 76 30 183 64 238 76 55
12 139 35 187 51 202 69 242 81 325 100 48 11 121 32 163 46 41 14 142 45 225
69 82 23 185 58 228 76 44 19 95 34 114 34 19 0 118 29 221 64 103 36 215 70
249 77 103 22 307 86 391 124 44 19 101 35 129 35 64 0 299 70 384 115 36 19
83 35 103 35 39 0 243 58 393 111 191 68 346 114 391 115 26 0 68 17 95 37 27
20 69 37 95 37 25 0 115 23 199 52 167 56 329 50 457 -16 38 -20 93 -36 123
-36 30 0 67 -12 82 -27 15 -15 65 -37 111 -49 47 -12 146 -43 222 -71 l138
-49 56 62 c31 34 56 86 57 117 0 30 34 133 75 229 41 96 74 187 74 203 0 41
97 255 123 271 38 24 57 190 26 228 -16 19 -70 41 -120 50 -130 21 -353 84
-441 123 -42 19 -109 39 -150 46 -81 12 -206 53 -325 107 -86 38 -327 60 -475
43z"/>
<path d="M14856 22483 c-17 -6 -31 -49 -31 -95 0 -45 -17 -96 -37 -113 -21
-17 -38 -49 -39 -72 -1 -61 -88 -302 -121 -335 -15 -15 -28 -53 -28 -85 0 -50
-42 -168 -103 -289 -12 -24 -47 -120 -76 -213 -30 -93 -69 -186 -88 -208 -18
-22 -33 -55 -33 -75 0 -39 -94 -295 -122 -335 -10 -14 -44 -107 -76 -207 -32
-100 -68 -188 -80 -195 -12 -8 -22 -32 -22 -54 0 -37 -112 -348 -187 -519 -18
-42 -52 -132 -76 -200 -42 -121 -77 -209 -152 -383 -19 -45 -35 -102 -35 -128
0 -25 -17 -60 -37 -77 -21 -17 -38 -49 -39 -72 -1 -46 -75 -264 -115 -340 -15
-28 -46 -112 -71 -188 -24 -76 -58 -171 -76 -212 -18 -42 -57 -143 -87 -225
-30 -83 -62 -161 -72 -175 -10 -14 -44 -107 -76 -207 -32 -100 -68 -188 -80
-195 -12 -8 -22 -39 -22 -69 0 -31 -15 -78 -33 -105 -18 -27 -58 -125 -87
-218 -30 -93 -65 -189 -77 -213 -22 -41 -59 -136 -146 -368 -21 -56 -53 -130
-72 -167 -19 -36 -35 -86 -35 -110 0 -24 -34 -115 -75 -202 -41 -88 -75 -175
-75 -194 0 -20 -34 -111 -75 -202 -41 -92 -75 -185 -75 -205 0 -21 -15 -68
-34 -104 -64 -124 -116 -256 -116 -295 0 -21 -15 -69 -33 -105 -18 -37 -52
-104 -75 -150 -23 -46 -42 -99 -42 -118 0 -19 -16 -71 -35 -116 -19 -46 -54
-133 -78 -195 -23 -62 -58 -142 -77 -179 -19 -36 -35 -86 -35 -110 0 -24 -34
-115 -75 -202 -41 -88 -75 -176 -75 -196 0 -37 -53 -171 -116 -292 -19 -36
-34 -83 -34 -104 0 -20 -34 -113 -75 -204 -41 -92 -75 -182 -75 -200 0 -17
-35 -115 -78 -216 -43 -101 -94 -229 -115 -284 -21 -55 -53 -140 -71 -188 -18
-48 -68 -183 -111 -300 -43 -117 -94 -244 -114 -283 -20 -39 -36 -87 -36 -106
0 -32 -51 -164 -103 -267 -12 -24 -47 -120 -77 -213 -29 -93 -69 -191 -87
-218 -18 -27 -33 -68 -33 -90 0 -23 -32 -119 -72 -214 -64 -153 -162 -413
-251 -659 -17 -48 -55 -169 -85 -269 -32 -105 -68 -181 -87 -181 -89 0 -1269
1194 -1375 1390 -17 33 -40 60 -50 60 -11 0 -40 37 -66 81 -26 45 -69 110 -95
144 -91 121 -244 363 -244 386 0 12 -16 40 -34 62 -60 68 -268 497 -377 777
-24 62 -60 149 -79 195 -19 45 -35 107 -36 137 0 31 -17 84 -36 118 -20 34
-37 92 -37 127 -1 36 -21 82 -45 104 -55 48 -380 269 -396 269 -6 0 -110 73
-230 162 -119 89 -268 198 -330 242 -62 44 -146 111 -187 147 -215 190 -231
83 -88 -588 29 -138 63 -307 74 -375 12 -69 46 -193 75 -275 29 -82 59 -195
67 -250 9 -55 29 -117 45 -138 17 -21 51 -105 77 -187 46 -151 120 -322 281
-650 102 -211 82 -175 331 -575 237 -382 399 -617 508 -738 44 -49 135 -156
204 -238 189 -228 754 -798 949 -958 95 -78 208 -176 251 -217 43 -42 196
-163 340 -269 143 -106 277 -208 298 -226 21 -19 150 -113 288 -211 137 -97
288 -206 336 -241 127 -96 223 -65 225 73 1 63 96 341 128 373 13 13 23 53 23
88 0 36 15 87 34 114 19 27 58 120 88 206 29 87 63 177 75 200 12 24 42 111
67 194 25 82 60 167 78 189 18 22 33 58 33 81 0 56 75 245 116 294 19 22 34
65 34 96 0 54 52 196 102 277 13 21 27 49 31 63 5 13 34 98 66 187 31 89 90
258 130 375 41 117 85 223 98 236 12 13 23 47 23 76 0 29 15 74 33 101 18 27
54 117 80 200 26 82 56 161 66 175 9 14 43 104 73 200 31 96 69 191 85 212 16
21 50 111 76 200 25 89 59 179 75 200 15 21 49 111 75 200 25 89 59 179 75
200 29 38 112 284 112 332 0 15 15 44 32 66 18 22 54 107 80 190 26 82 62 172
80 199 18 27 33 66 33 87 0 21 16 69 35 106 20 36 43 101 52 143 9 42 27 83
40 91 13 8 23 35 23 60 0 26 16 79 35 118 71 143 115 261 115 307 0 27 11 55
24 63 13 8 49 96 80 195 31 99 68 196 82 215 27 37 81 174 113 291 12 41 45
122 74 181 29 58 60 143 69 187 9 45 48 153 87 240 39 87 71 176 71 196 0 21
16 68 35 104 33 63 81 183 153 379 164 451 286 756 315 786 12 13 22 53 22 89
0 36 34 132 75 213 41 80 75 166 75 189 0 24 34 119 75 211 41 91 75 182 75
200 0 31 16 70 109 258 23 46 41 101 41 123 0 21 35 130 77 241 75 197 97 252
182 447 22 52 41 116 41 142 0 27 10 54 21 61 12 8 47 90 78 183 32 93 68 183
82 200 13 17 33 67 45 113 33 130 88 268 120 300 16 16 29 58 30 93 0 35 33
131 74 214 41 82 74 169 74 192 1 24 20 86 42 138 70 161 101 237 183 457 202
540 227 605 265 688 19 41 54 136 80 212 25 76 63 166 86 200 22 34 47 98 56
141 19 89 -33 119 -273 158 -69 11 -187 45 -263 76 -76 30 -177 63 -225 73
-48 10 -124 37 -168 60 -79 42 -141 50 -201 25z"/>
<path d="M16657 21894 c-42 -89 -107 -280 -107 -315 0 -17 -34 -100 -75 -183
-41 -83 -75 -171 -75 -195 0 -24 -33 -110 -74 -191 -87 -172 -91 -166 149
-220 103 -24 230 -59 282 -79 52 -20 119 -36 150 -36 30 0 88 -17 127 -38 39
-20 90 -37 113 -38 22 0 62 -17 89 -37 27 -20 83 -37 126 -37 42 0 155 -33
251 -74 96 -41 202 -75 236 -75 34 -1 152 -31 263 -67 352 -115 322 -89 304
-266 -11 -114 -23 -1704 -17 -2222 1 -23 54 -72 120 -110 65 -38 124 -76 131
-84 7 -8 69 -53 138 -100 295 -202 452 -312 487 -344 140 -125 240 -207 255
-207 49 -2 63 103 42 324 -12 131 -20 1030 -19 1998 4 1958 15 1827 -160 1827
-40 0 -103 16 -139 36 -37 20 -156 59 -266 87 -176 45 -433 122 -675 205 -137
46 -324 99 -437 123 -61 14 -123 36 -136 49 -14 14 -52 25 -84 25 -33 0 -82
12 -110 27 -48 26 -200 72 -408 125 -55 14 -111 36 -124 49 -13 13 -41 24 -63
24 -21 0 -71 17 -110 38 -100 52 -153 46 -184 -19z"/>
<path d="M12463 21201 c-24 -28 -68 -57 -98 -66 -29 -9 -69 -30 -90 -48 -21
-17 -84 -30 -142 -29 -64 2 -121 -12 -150 -37 -25 -22 -76 -40 -114 -40 -38 0
-87 -15 -110 -34 -23 -19 -73 -36 -113 -38 -39 -2 -90 -19 -113 -37 -22 -19
-88 -35 -146 -35 -58 -1 -126 -17 -150 -37 -24 -21 -76 -39 -116 -41 -39 -2
-90 -19 -113 -37 -22 -19 -89 -35 -147 -35 -68 -1 -126 -18 -158 -46 -27 -25
-61 -39 -74 -31 -46 28 -150 -31 -158 -90 -7 -47 -26 -59 -108 -66 -55 -4
-109 -24 -120 -43 -12 -22 -59 -36 -117 -36 -62 0 -101 -13 -110 -37 -9 -25
-48 -38 -113 -38 -67 0 -103 -13 -113 -41 -13 -33 -39 -38 -140 -26 -107 12
-128 8 -151 -34 -19 -36 -52 -49 -122 -49 -63 0 -102 -13 -111 -37 -9 -25 -48
-38 -113 -38 -67 0 -103 -13 -113 -41 -13 -32 -40 -38 -131 -27 -92 10 -122 3
-155 -35 -26 -30 -73 -47 -132 -47 -58 0 -97 -14 -106 -37 -19 -51 -116 -49
-116 1 0 27 -18 37 -56 31 -41 -5 -57 -24 -57 -70 0 -55 -12 -64 -100 -71 -55
-4 -108 -24 -119 -43 -11 -20 -42 -36 -69 -36 -27 0 -71 -22 -98 -49 -45 -45
-49 -98 -60 -749 -7 -391 -3 -707 9 -715 12 -7 43 10 70 38 28 30 64 45 87 36
25 -9 50 5 68 39 18 34 43 48 68 39 25 -10 68 18 122 79 61 69 83 83 84 51 2
-74 101 -56 101 19 0 70 8 73 78 36 50 -27 147 -11 147 24 0 11 -37 31 -81 44
l-81 25 98 42 c54 23 133 82 176 130 52 58 92 83 119 73 26 -10 50 3 68 36 15
29 49 52 75 52 26 0 81 34 122 75 45 44 90 69 113 61 22 -9 48 6 65 38 24 43
44 50 113 37 69 -13 89 -6 112 37 35 66 116 68 133 2 10 -38 34 -50 100 -50
95 0 140 -56 91 -115 -42 -50 -5 -91 54 -59 37 20 48 18 48 -11 0 -52 151
-188 191 -173 19 7 40 -8 48 -33 8 -26 28 -69 44 -96 20 -35 31 -272 35 -769
6 -699 5 -718 -45 -745 -33 -17 -45 -43 -36 -71 15 -48 -75 -149 -105 -118
-10 10 -2 28 18 40 52 32 13 59 -59 41 -84 -22 -104 -88 -42 -146 28 -26 51
-53 51 -61 0 -35 -274 -284 -312 -284 -23 0 -82 -45 -131 -100 -104 -116 -132
-124 -132 -39 0 152 -172 30 -175 -123 -1 -84 -92 -187 -166 -189 -26 -1 -74
-34 -108 -75 -34 -41 -84 -74 -112 -75 -28 -1 -79 -34 -113 -75 -34 -41 -84
-74 -112 -75 -28 -1 -79 -34 -113 -75 -34 -41 -82 -74 -107 -74 -26 0 -79 -35
-118 -78 -41 -44 -84 -70 -100 -60 -39 24 -157 -108 -166 -185 -10 -88 34
-157 87 -140 32 10 79 -24 162 -114 68 -73 132 -122 152 -115 18 8 65 -25 105
-73 43 -51 86 -80 107 -72 22 8 69 -23 117 -77 49 -55 93 -84 111 -73 18 11
62 -18 111 -73 52 -59 95 -86 120 -76 58 22 104 -74 55 -114 -20 -17 -37 -47
-37 -66 0 -46 111 -44 150 4 35 42 125 51 125 12 0 -14 -17 -25 -37 -25 -24 0
-38 -24 -38 -62 0 -68 26 -78 102 -37 40 22 64 9 146 -77 53 -56 113 -99 133
-94 64 14 206 -154 198 -234 -5 -48 4 -71 28 -71 54 0 121 -87 103 -134 -10
-27 -2 -41 23 -41 21 0 43 14 50 31 7 20 18 13 28 -18 10 -28 28 -70 41 -94
13 -24 23 -63 23 -87 0 -25 18 -78 40 -119 25 -48 41 -148 43 -275 l5 -200 87
0 c74 0 88 8 88 55 0 30 18 69 40 87 40 32 61 94 89 266 8 45 30 89 50 97 19
7 58 57 85 111 28 54 67 105 87 112 54 21 43 76 -19 93 -52 13 -52 16 -12 61
23 25 42 82 42 125 0 53 16 87 50 105 28 15 50 52 50 83 0 32 13 70 29 86 16
16 28 63 27 105 -2 52 13 84 48 103 41 22 48 43 35 111 -13 69 -6 89 35 112
28 15 51 47 51 72 0 25 18 81 39 124 22 43 32 90 24 104 -9 14 18 60 60 102
71 71 94 151 78 269 -2 19 15 55 39 81 23 26 42 82 40 123 -1 51 14 84 49 102
41 22 48 43 35 111 -13 69 -6 89 35 112 28 15 51 52 51 83 0 32 13 70 29 86
16 16 28 63 27 105 -2 51 13 85 46 102 26 14 48 47 48 72 0 25 17 79 37 118
21 39 38 96 38 126 0 37 18 57 56 63 70 10 85 76 29 131 -31 32 -35 49 -13 71
21 21 28 20 28 -2 0 -52 71 -33 89 24 12 38 3 65 -28 88 -44 32 -44 34 1 67
29 21 45 63 44 112 -2 55 13 87 48 106 41 22 48 43 35 111 -13 69 -6 89 35
112 28 15 51 48 51 73 0 25 17 79 37 118 21 39 31 91 24 114 -9 26 6 52 40 71
44 23 51 43 39 108 -12 61 -3 90 35 123 27 23 50 58 50 77 0 20 17 68 37 107
21 39 31 91 24 114 -8 26 6 52 38 69 28 15 51 47 51 71 0 23 34 110 76 193 56
110 72 170 61 229 -11 65 -3 86 39 109 44 23 51 43 38 112 -13 69 -6 89 35
112 28 15 51 48 51 73 0 25 17 79 37 118 21 39 31 91 24 114 -8 26 6 52 39 70
42 23 49 43 36 112 -13 69 -6 89 36 112 33 17 50 48 46 83 -4 41 7 54 41 52
42 -4 45 8 32 105 -13 94 -7 114 36 137 33 18 46 42 37 67 -8 22 3 60 26 85
22 24 43 80 45 123 2 45 22 88 47 102 24 14 43 45 43 69 0 25 16 78 35 118 24
48 31 117 22 204 -13 125 -17 131 -85 131 -40 0 -72 11 -72 25 0 14 23 25 50
25 33 0 50 17 50 50 0 62 -127 71 -175 13 -40 -49 -191 -49 -218 -1 -15 27
-83 38 -270 43 -237 7 -250 10 -257 64 -10 69 -58 72 -117 7z"/>
<path d="M13162 21174 c-10 -16 -6 -40 8 -54 34 -34 112 -5 99 36 -14 42 -85
54 -107 18z"/>
<path d="M15944 20274 c-52 -52 -94 -111 -94 -130 0 -20 -18 -72 -39 -115 -22
-43 -32 -90 -23 -105 9 -15 -2 -48 -26 -74 -23 -26 -44 -82 -47 -123 -2 -41
-17 -89 -34 -106 -18 -18 -31 -97 -31 -188 0 -163 -14 -181 -99 -128 -62 39
-103 1 -45 -41 24 -18 44 -45 44 -61 0 -16 17 -36 38 -44 21 -8 37 -46 37 -87
0 -43 16 -80 39 -88 49 -19 62 -5 87 96 18 76 21 78 37 26 24 -76 87 -72 87 5
0 34 -11 68 -25 77 -41 25 -28 62 22 62 26 0 54 -17 62 -37 8 -21 41 -38 73
-38 32 0 72 -14 89 -31 24 -24 41 -24 79 0 41 26 53 23 76 -21 17 -31 43 -46
65 -37 23 8 68 -17 113 -61 41 -41 96 -75 122 -75 26 0 60 -23 75 -52 18 -33
42 -46 67 -37 27 11 78 -26 159 -113 65 -71 131 -121 146 -112 14 9 61 -23
103 -71 42 -47 126 -111 188 -141 61 -29 111 -64 111 -78 0 -13 22 -21 49 -16
27 4 64 -14 83 -39 24 -33 50 -42 89 -30 54 17 54 22 54 664 0 355 6 662 13
681 8 19 -17 68 -54 108 -60 65 -82 73 -189 65 -92 -7 -123 1 -135 31 -10 27
-47 40 -113 40 -65 0 -104 13 -113 38 -9 24 -48 37 -112 37 -65 0 -104 13
-113 38 -9 23 -48 37 -106 37 -61 0 -106 17 -135 50 -32 38 -60 47 -108 35
-51 -13 -78 -1 -136 62 -39 43 -92 78 -118 78 -25 0 -73 33 -107 74 -77 93
-91 91 -205 -25z"/>
<path d="M15515 19529 c-23 -37 11 -104 52 -104 23 0 34 20 28 54 -8 59 -56
88 -80 50z"/>
<path d="M15817 18731 c-6 -10 -9 -333 -6 -718 l5 -699 148 -107 c82 -60 165
-115 186 -124 21 -9 101 -65 179 -125 78 -59 150 -108 159 -108 10 0 60 -34
112 -75 52 -41 107 -75 121 -75 15 0 36 -14 47 -31 11 -18 132 -108 270 -200
137 -92 328 -224 425 -293 96 -69 259 -181 362 -249 103 -68 199 -134 214
-147 15 -13 53 -38 86 -55 33 -17 82 -53 109 -78 28 -26 93 -69 145 -96 203
-106 296 -177 296 -226 0 -28 -10 -50 -21 -50 -20 0 -573 -365 -987 -652 -107
-75 -214 -147 -237 -160 -23 -14 -49 -35 -58 -47 -8 -11 -39 -34 -67 -50 -29
-15 -134 -86 -235 -156 -399 -277 -575 -399 -614 -422 -46 -29 -53 -34 -206
-147 -62 -46 -175 -121 -250 -167 -76 -46 -148 -101 -162 -123 -13 -21 -27
-314 -30 -651 -4 -337 -10 -641 -14 -675 -8 -80 81 -99 147 -30 63 64 771 580
797 580 6 0 101 65 210 144 109 79 256 183 327 231 71 48 197 137 281 197 223
160 471 328 483 328 6 0 75 49 154 108 80 60 229 164 332 231 103 68 199 136
213 151 13 16 64 50 112 75 48 26 96 62 107 79 11 17 32 31 46 31 14 0 90 49
168 109 78 59 187 138 242 173 55 36 156 105 225 154 126 91 569 395 673 464
31 21 132 82 223 138 91 55 165 113 166 129 0 33 -134 152 -211 186 -28 12
-81 42 -118 66 -190 124 -373 251 -500 348 -78 59 -149 108 -156 108 -14 0
-387 267 -464 331 -20 17 -73 51 -118 75 -45 24 -148 94 -230 156 -82 62 -156
113 -165 113 -9 0 -83 51 -163 113 -80 61 -152 112 -159 112 -17 0 -330 214
-445 304 -50 39 -97 71 -105 71 -8 0 -104 68 -214 150 -110 83 -211 150 -224
150 -14 0 -35 16 -46 34 -11 19 -59 56 -107 82 -48 26 -149 92 -225 148 -76
55 -166 119 -200 142 -149 101 -285 200 -318 233 -20 20 -47 36 -61 36 -14 0
-164 107 -334 238 -170 130 -314 229 -320 218z"/>
<path d="M9662 18663 c-169 -142 -512 -388 -542 -388 -18 -1 -57 -27 -88 -59
-30 -32 -120 -102 -200 -156 -79 -53 -208 -145 -286 -204 -78 -58 -150 -106
-159 -106 -10 0 -60 -34 -112 -75 -52 -41 -102 -75 -111 -75 -9 0 -103 -65
-209 -145 -106 -80 -228 -167 -271 -194 -43 -27 -144 -94 -225 -150 -81 -57
-225 -157 -321 -223 -307 -212 -325 -225 -334 -244 -4 -11 -20 -19 -34 -19
-14 0 -91 -48 -171 -106 -80 -59 -298 -213 -486 -344 -188 -131 -450 -315
-583 -409 -134 -94 -259 -178 -280 -186 -21 -7 -72 -40 -115 -72 -42 -32 -88
-58 -102 -58 -33 0 -133 -109 -133 -145 0 -17 11 -30 24 -30 13 0 72 -31 131
-69 59 -38 126 -80 149 -93 23 -14 125 -83 225 -152 101 -70 313 -215 471
-323 158 -107 349 -243 425 -300 76 -58 222 -159 325 -224 103 -66 199 -133
213 -148 13 -16 199 -145 412 -287 213 -143 489 -331 613 -420 322 -230 599
-423 877 -609 134 -89 407 -285 608 -434 200 -150 378 -277 393 -283 34 -13
70 79 47 117 -9 14 -16 303 -15 644 0 685 7 656 -173 765 -62 38 -180 119
-262 180 -83 62 -167 119 -187 129 -20 9 -106 68 -193 130 -187 137 -497 355
-554 390 -81 49 -192 124 -204 136 -7 8 -103 74 -212 149 -621 419 -751 510
-759 530 -4 12 -21 22 -37 23 -16 0 -74 34 -128 75 -54 41 -113 74 -131 74
-18 0 -33 17 -33 38 0 43 87 137 127 137 15 0 63 25 106 56 43 31 98 68 121
82 104 60 575 384 746 512 103 77 223 162 267 189 115 70 497 330 658 448 76
55 156 112 178 126 23 13 183 119 357 235 l315 210 4 646 c3 355 6 671 7 702
2 78 -60 82 -149 7z"/>
<path d="M15094 17919 c-21 -32 -42 -80 -48 -107 -5 -29 -42 -57 -93 -72 -83
-24 -84 -25 -70 -143 10 -86 4 -126 -22 -148 -20 -17 -44 -75 -52 -129 -9 -55
-32 -105 -51 -113 -20 -7 -29 -32 -20 -58 8 -25 3 -52 -10 -60 -34 -20 -160
-290 -144 -307 7 -7 -9 -53 -35 -103 -27 -50 -49 -109 -49 -132 0 -22 -18 -84
-40 -136 -34 -81 -44 -89 -64 -54 -29 53 -71 56 -71 6 0 -21 12 -38 27 -38 44
0 2 -186 -77 -342 -39 -77 -65 -156 -57 -175 7 -19 -3 -54 -22 -78 -53 -63
-153 -281 -137 -297 7 -7 -9 -54 -35 -104 -27 -50 -49 -109 -49 -132 0 -23
-16 -72 -36 -110 -19 -37 -29 -84 -21 -104 7 -19 -7 -57 -31 -84 -25 -27 -44
-82 -42 -123 1 -42 -9 -82 -22 -90 -13 -7 -23 4 -23 25 0 39 -52 53 -83 23 -8
-9 3 -48 26 -86 39 -66 39 -74 0 -117 -24 -26 -50 -85 -59 -133 -10 -47 -35
-99 -57 -115 -22 -16 -32 -37 -22 -46 9 -10 -5 -58 -31 -108 -27 -50 -49 -110
-49 -134 0 -23 -29 -96 -64 -162 -36 -66 -69 -152 -74 -191 -5 -39 -22 -87
-39 -107 -17 -20 -30 -69 -28 -109 1 -40 -15 -86 -34 -102 -20 -17 -36 -46
-36 -65 0 -19 -22 -53 -49 -76 -34 -30 -42 -53 -26 -84 13 -23 14 -73 4 -112
-23 -87 -82 -115 -73 -36 4 31 -9 61 -28 68 -27 10 -30 -17 -16 -137 16 -144
15 -149 -40 -147 -72 3 -94 -76 -34 -120 46 -33 15 -140 -39 -140 -13 0 -24
-22 -24 -49 0 -26 -28 -101 -62 -166 -35 -65 -63 -142 -63 -171 0 -30 -17 -76
-37 -103 -20 -27 -37 -77 -37 -112 -1 -36 -18 -86 -38 -113 -20 -27 -37 -85
-37 -129 -1 -54 -17 -89 -51 -107 -27 -15 -50 -48 -50 -73 0 -25 -17 -79 -37
-118 -21 -39 -31 -90 -24 -113 7 -23 2 -49 -11 -57 -40 -25 -156 -288 -139
-316 8 -14 2 -41 -14 -60 -53 -65 -125 -223 -125 -276 0 -29 -17 -74 -37 -101
-20 -27 -37 -77 -37 -112 -1 -36 -18 -86 -38 -113 -20 -27 -37 -80 -37 -119
-1 -45 -29 -99 -76 -146 -41 -41 -75 -96 -75 -122 0 -25 -20 -58 -44 -71 -36
-21 -38 -33 -13 -75 25 -40 23 -64 -6 -120 -20 -39 -30 -90 -23 -113 8 -26 -6
-52 -38 -69 -28 -15 -51 -49 -51 -74 0 -25 -17 -79 -37 -118 -21 -39 -38 -90
-38 -112 0 -23 -17 -74 -37 -113 -49 -93 -50 -293 -2 -333 22 -18 66 -24 109
-15 50 11 82 4 104 -22 18 -22 50 -39 71 -39 21 0 59 -18 83 -40 25 -23 80
-43 123 -45 46 -2 88 -22 103 -48 16 -28 41 -39 71 -29 32 10 56 -2 75 -38 19
-36 43 -48 75 -37 32 10 56 -2 75 -38 23 -42 43 -49 112 -36 70 13 89 7 113
-39 34 -63 150 -56 226 13 23 21 59 31 81 23 25 -9 50 4 67 37 21 39 52 52
124 52 69 0 102 13 114 44 16 41 18 41 50 -2 47 -64 130 -17 158 90 17 62 34
79 75 75 33 -4 64 14 81 45 18 34 42 46 74 36 32 -11 56 1 75 37 18 33 44 47
71 39 28 -9 67 16 115 74 50 60 87 83 117 74 28 -9 54 4 71 37 21 39 43 48 90
36 47 -12 61 -6 61 28 0 31 14 39 50 30 69 -18 175 35 175 88 0 56 102 159
147 148 19 -4 69 30 111 75 42 46 92 80 112 75 20 -4 86 47 148 113 62 66 129
117 149 113 20 -4 121 80 224 187 110 114 206 193 230 189 54 -8 785 725 774
776 -4 21 64 106 150 188 87 83 155 167 150 187 -4 20 26 70 68 112 155 159
191 210 205 295 8 50 34 99 62 113 31 17 42 42 33 73 -11 32 1 56 37 75 36 19
48 43 38 75 -11 32 1 56 36 74 28 16 51 53 51 84 0 32 14 72 31 90 25 27 25
36 0 45 -17 6 -31 50 -31 97 0 67 -10 85 -47 85 -61 0 -79 -49 -61 -161 9 -55
4 -89 -12 -89 -15 0 -30 31 -35 69 -8 73 -80 106 -128 58 -19 -19 -19 -35 3
-57 66 -66 -29 -219 -136 -221 -26 -1 -74 -34 -108 -75 -34 -41 -84 -74 -112
-75 -28 -1 -79 -34 -113 -75 -34 -41 -86 -74 -116 -74 -30 0 -61 -17 -69 -37
-8 -21 -42 -38 -75 -38 -33 0 -67 -17 -75 -37 -18 -48 -116 -50 -116 -2 0 19
-32 51 -71 71 -64 32 -77 30 -137 -18 -78 -62 -87 -114 -20 -114 27 0 55 24
65 56 l17 57 19 -63 c26 -85 13 -100 -83 -100 -88 0 -208 97 -146 118 17 6 31
34 31 62 0 41 -12 48 -64 39 -73 -14 -116 47 -59 82 19 12 26 30 16 40 -11 10
-32 5 -48 -11 -62 -62 -219 27 -220 125 0 46 -42 81 -100 82 -57 1 -64 117
-50 856 9 496 21 688 44 711 17 17 31 46 31 65 0 19 34 69 75 110 41 41 75 94
75 118 0 54 251 293 297 282 19 -4 86 49 150 117 97 104 126 123 183 112 58
-12 65 -6 53 39 -8 31 -2 53 14 53 15 0 28 -17 28 -37 0 -57 64 -46 138 23 67
62 66 114 -2 114 -20 0 -36 11 -36 25 0 14 29 25 64 25 39 0 91 29 133 76 45
48 84 70 109 60 26 -9 50 4 68 37 15 29 49 52 76 52 26 0 98 51 159 113 62 62
126 107 145 99 19 -7 65 26 105 73 39 48 86 81 103 74 64 -24 174 111 167 206
-6 95 -79 185 -149 185 -25 0 -72 33 -106 74 -34 41 -84 75 -111 76 -28 1 -83
35 -123 76 -41 41 -92 74 -114 74 -23 0 -68 33 -102 74 -34 41 -85 74 -113 75
-28 1 -78 34 -112 75 -34 41 -82 74 -108 75 -25 1 -102 54 -170 119 -68 66
-138 119 -156 119 -19 0 -80 48 -137 107 -56 58 -123 106 -147 106 -60 1 -160
111 -142 158 9 24 -6 49 -39 67 -43 23 -47 35 -23 65 37 44 9 81 -31 41 -37
-37 -235 152 -207 197 11 17 -2 44 -29 64 -25 19 -48 68 -50 110 -3 41 -23 96
-47 122 -35 39 -41 92 -35 318 5 227 0 272 -32 278 -21 4 -56 -19 -77 -51z"/>
<path d="M15561 13773 c-26 -42 32 -90 67 -55 29 29 11 82 -28 82 -12 0 -30
-12 -39 -27z"/>
<path d="M19395 13582 c-152 -137 -310 -257 -339 -257 -14 0 -39 -18 -57 -39
-32 -38 -252 -196 -354 -252 -28 -16 -59 -39 -67 -50 -24 -33 -252 -184 -277
-184 -37 0 -101 -106 -101 -167 0 -31 -16 -93 -34 -138 -19 -46 -55 -150 -80
-232 -25 -83 -58 -179 -74 -213 -16 -34 -47 -102 -68 -150 -99 -225 -285 -596
-339 -675 -33 -48 -70 -110 -83 -137 -12 -28 -61 -101 -109 -163 -49 -62 -98
-136 -110 -164 -13 -28 -52 -78 -88 -112 -35 -34 -64 -72 -65 -84 0 -45 -245
-313 -662 -727 -473 -470 -505 -499 -738 -675 -89 -68 -171 -138 -182 -156
-11 -17 -35 -32 -52 -32 -17 0 -64 -34 -103 -75 -40 -41 -86 -75 -102 -75 -16
0 -43 -16 -59 -35 -39 -47 -591 -415 -623 -415 -13 0 -29 -9 -33 -20 -9 -21
-564 -355 -591 -355 -10 0 -68 -34 -130 -75 -62 -41 -135 -75 -162 -76 -28 -1
-89 -34 -137 -75 -48 -41 -98 -74 -111 -74 -14 0 -93 -33 -176 -73 -83 -40
-205 -97 -270 -127 -65 -30 -125 -65 -133 -77 -25 -41 -101 -25 -245 52 -77
41 -151 75 -165 75 -14 0 -80 34 -147 75 -67 41 -142 75 -166 75 -24 0 -86 34
-138 75 -52 41 -112 75 -134 75 -35 0 -155 71 -346 203 -82 57 -141 39 -159
-50 -8 -36 -30 -102 -50 -148 -20 -45 -36 -102 -36 -128 0 -25 -35 -129 -78
-230 -43 -101 -105 -248 -137 -325 -80 -187 -81 -184 84 -260 152 -71 398
-193 473 -235 118 -65 834 -402 855 -402 13 0 80 -28 148 -63 153 -76 157 -76
310 1 68 34 135 62 147 62 30 0 829 380 1048 499 21 11 88 45 150 75 157 77
361 191 613 345 119 72 220 131 225 131 43 0 1361 933 1412 1000 7 9 108 99
225 198 269 230 639 589 854 829 345 386 646 751 646 786 0 9 34 60 75 112 41
52 75 100 75 107 0 7 48 84 106 171 59 87 136 215 173 284 134 254 321 638
321 660 0 12 17 36 38 53 20 17 37 57 37 88 0 32 34 133 75 225 41 91 75 185
75 208 0 22 33 148 73 279 41 131 92 333 114 450 22 117 52 263 66 325 79 356
89 549 29 568 -16 6 -78 -33 -137 -86z"/>
<path d="M8435 12165 c-9 -22 -41 -40 -73 -40 -48 0 -61 -17 -74 -99 -19 -109
-4 -151 51 -151 20 0 36 -21 36 -47 0 -26 17 -61 38 -78 20 -17 37 -43 37 -58
0 -57 212 -447 255 -470 25 -13 45 -48 45 -77 0 -32 58 -107 148 -193 82 -77
156 -169 165 -205 21 -87 247 -308 295 -290 23 9 59 -14 93 -59 31 -40 69 -73
84 -73 40 1 140 113 140 157 0 20 17 70 37 109 21 39 31 91 24 114 -8 26 6 52
40 70 33 18 47 43 38 68 -8 22 3 60 26 85 22 24 42 80 45 122 2 43 20 88 41
100 26 17 37 75 39 213 3 151 12 196 48 222 27 20 39 49 29 74 -21 56 -94 52
-109 -7 -7 -27 -29 -55 -48 -62 -19 -7 -35 -40 -35 -73 0 -129 -217 -201 -275
-91 -23 42 -43 48 -114 35 -66 -13 -89 -7 -101 24 -8 22 -40 40 -71 40 -33 0
-85 36 -128 87 -50 60 -87 83 -117 74 -27 -9 -50 1 -59 25 -9 21 -40 39 -70
39 -30 0 -82 33 -116 74 -34 41 -84 74 -112 75 -70 1 -147 96 -162 199 -13 92
-66 131 -90 67z"/>
<path d="M10092 11609 c-37 -37 -17 -113 27 -104 24 4 44 30 44 56 0 49 -41
77 -71 48z"/>
<path d="M9652 11515 c-35 -43 -17 -90 36 -90 54 0 72 51 32 91 -32 32 -41 32
-68 -1z"/>
<path d="M9350 10228 c0 -21 109 -103 137 -103 7 0 13 11 13 25 0 14 -17 25
-37 25 -21 0 -38 17 -38 38 0 20 -17 37 -37 37 -21 0 -38 -10 -38 -22z"/>
<path d="M11839 8452 c-20 -32 12 -104 39 -88 29 19 28 111 -2 111 -12 0 -29
-10 -37 -23z"/>
<path d="M3698 5273 c-26 -26 -48 -73 -49 -104 -1 -31 -30 -135 -64 -231 -35
-97 -73 -220 -83 -275 -11 -55 -46 -157 -77 -225 -31 -69 -65 -165 -76 -213
-10 -48 -44 -149 -74 -225 -30 -76 -66 -188 -80 -250 -14 -62 -34 -124 -43
-137 -10 -14 -38 -93 -63 -175 -25 -83 -60 -190 -79 -238 -18 -48 -51 -155
-74 -237 -43 -155 -90 -290 -151 -433 -19 -45 -35 -101 -35 -125 0 -24 -15
-66 -34 -93 -18 -27 -40 -78 -48 -112 -28 -120 -103 -313 -134 -344 -89 -90
130 -124 518 -83 23 3 73 124 73 177 0 27 16 85 35 130 20 46 55 156 79 245
25 89 58 191 75 225 16 34 100 282 185 550 86 268 171 527 189 575 37 97 152
445 186 563 26 90 74 227 109 312 55 134 115 314 116 347 1 19 36 106 79 193
109 221 100 232 -191 232 -204 -1 -248 -8 -289 -49z"/>
<path d="M8301 4988 c-11 -14 -11 -233 0 -487 24 -524 16 -550 -126 -417 -101
95 -303 166 -472 166 -126 -1 -386 -73 -433 -120 -17 -17 -39 -30 -50 -30 -11
0 -43 -20 -71 -44 -314 -270 -437 -635 -365 -1077 19 -114 47 -220 63 -236 15
-15 28 -43 28 -62 0 -59 193 -292 312 -375 185 -131 271 -156 528 -156 261 0
376 38 486 160 79 87 124 70 124 -48 0 -106 34 -117 309 -107 l196 8 2 1423 2
1424 -257 1 c-142 1 -265 -10 -276 -23z m-225 -1302 c333 -229 287 -875 -73
-1026 -97 -40 -318 -47 -340 -10 -9 14 -36 25 -60 25 -56 0 -178 132 -235 254
-58 122 -58 419 -1 540 134 282 467 384 709 217z"/>
<path d="M4983 4819 c-20 -28 -61 -129 -175 -431 -20 -55 -53 -132 -72 -171
-20 -39 -36 -81 -36 -94 0 -13 -32 -93 -71 -179 -39 -86 -92 -207 -116 -269
-25 -62 -71 -169 -103 -238 -31 -70 -65 -159 -75 -200 -10 -41 -50 -138 -89
-216 -39 -79 -71 -156 -71 -172 0 -16 -16 -59 -36 -95 -20 -37 -55 -111 -77
-166 -22 -55 -74 -164 -114 -241 -106 -203 -113 -197 224 -197 326 0 341 6
379 156 23 90 85 269 131 375 l30 69 582 0 c445 0 584 -7 591 -31 24 -94 101
-335 113 -356 8 -14 26 -65 40 -113 l26 -87 331 -7 c181 -4 330 -1 330 6 0 8
-11 33 -25 57 -14 24 -36 72 -50 106 -14 34 -35 79 -48 100 -13 21 -54 105
-91 188 -36 82 -86 195 -111 250 -107 240 -200 471 -200 499 0 17 -34 94 -75
172 -41 77 -75 156 -75 175 0 20 -34 104 -75 187 -41 83 -75 166 -75 185 0 18
-15 55 -34 82 -18 27 -54 106 -79 175 -26 68 -60 147 -75 175 -25 42 -43 98
-102 306 -6 23 -89 31 -306 31 -209 0 -305 -9 -321 -31z m362 -649 c17 -16 30
-70 30 -119 0 -50 14 -112 32 -139 18 -27 53 -117 78 -199 25 -83 55 -167 67
-188 190 -318 183 -329 -239 -329 -193 1 -365 1 -382 2 -53 3 -35 96 57 291
48 103 87 207 87 232 0 24 10 55 22 68 23 26 93 233 115 342 15 74 79 93 133
39z"/>
<path d="M18124 4838 c0 -7 0 -604 0 -1325 0 -722 0 -1324 0 -1337 1 -33 1356
-8 1487 27 101 28 179 59 355 141 153 73 391 325 476 506 181 382 179 925 -4
1309 -67 142 -360 466 -420 466 -15 0 -44 15 -66 33 -50 43 -251 117 -315 117
-27 0 -82 17 -121 38 -70 36 -1390 59 -1392 25z m1483 -594 c284 -151 401
-384 387 -769 -12 -334 -77 -485 -271 -633 -182 -138 -316 -170 -697 -162
l-331 8 1 806 c1 443 2 812 3 819 0 6 171 12 379 12 377 0 378 0 529 -81z"/>
<path d="M2162 4390 c-206 -106 -445 -215 -470 -215 -11 0 -88 -34 -171 -75
-83 -41 -172 -75 -197 -75 -25 0 -53 -11 -61 -24 -18 -29 -231 -126 -277 -126
-29 0 -64 -15 -261 -115 -59 -30 -63 -45 -70 -254 -8 -257 -1 -268 220 -342
76 -25 162 -61 193 -80 30 -19 68 -34 83 -34 15 0 93 -33 173 -73 81 -40 173
-80 205 -90 65 -20 254 -104 484 -215 83 -39 162 -72 177 -72 15 0 54 -23 86
-51 33 -28 82 -48 110 -44 91 13 76 545 -14 545 -15 0 -62 15 -106 34 -43 19
-123 51 -178 72 -55 21 -184 73 -285 116 -101 43 -203 78 -225 79 -22 0 -62
17 -89 37 -27 20 -81 37 -120 37 -77 0 -116 56 -73 108 15 17 98 52 184 77 87
24 191 59 233 78 147 66 352 145 500 193 229 74 237 87 237 360 l0 234 -69 -4
c-38 -2 -136 -38 -219 -81z"/>
<path d="M23150 4255 c0 -263 15 -288 205 -355 79 -27 207 -78 285 -112 77
-35 162 -63 187 -63 25 0 51 -10 59 -23 8 -12 96 -47 195 -76 176 -53 244
-100 244 -168 0 -18 -25 -33 -56 -33 -31 0 -89 -17 -128 -38 -39 -20 -87 -37
-106 -37 -34 0 -171 -55 -289 -116 -36 -19 -83 -34 -104 -34 -20 0 -113 -34
-204 -75 -92 -41 -183 -75 -201 -75 -50 0 -54 -16 -74 -281 -22 -302 -10 -311
244 -187 167 81 255 122 573 265 64 29 133 53 153 53 20 0 49 16 65 35 16 19
59 43 95 52 36 9 112 39 168 66 56 28 169 73 252 102 229 79 237 91 237 349
l0 221 -159 75 c-87 41 -172 75 -188 75 -16 0 -92 34 -169 75 -78 41 -154 75
-169 75 -15 0 -95 34 -177 75 -83 41 -161 75 -174 75 -23 0 -224 91 -501 227
-250 121 -263 114 -263 -147z"/>
<path d="M10950 4231 c-241 -9 -309 -49 -332 -192 -8 -46 -41 -144 -74 -218
-33 -73 -75 -179 -92 -233 -18 -55 -52 -146 -76 -200 -24 -55 -58 -151 -75
-213 -47 -169 -123 -325 -160 -325 -31 0 -116 226 -116 311 0 24 -15 74 -34
110 -66 128 -116 256 -116 299 0 24 -15 66 -33 93 -18 27 -57 123 -86 212 -29
89 -70 204 -91 254 l-38 91 -265 1 c-209 1 -268 -7 -279 -35 -14 -36 47 -209
158 -451 33 -70 59 -141 59 -157 0 -17 23 -78 52 -135 28 -58 74 -167 102
-243 27 -76 65 -171 83 -212 93 -214 113 -269 113 -311 0 -25 17 -60 38 -77
20 -17 37 -49 38 -72 1 -61 86 -294 123 -339 25 -31 87 -39 299 -39 282 0 327
16 327 114 0 47 46 170 187 499 17 41 51 125 75 187 23 62 57 146 76 188 18
41 38 97 46 125 27 104 84 240 112 268 16 16 29 50 29 76 0 25 51 153 114 283
107 221 132 340 74 346 -14 2 -121 0 -238 -5z"/>
<path d="M12013 4203 c-291 -82 -496 -255 -639 -539 -85 -172 -86 -178 -85
-489 2 -309 4 -318 88 -476 83 -157 296 -399 350 -399 15 0 54 -21 86 -46 90
-71 325 -110 589 -99 227 9 290 27 473 132 97 56 300 238 300 269 0 15 15 45
34 67 86 102 118 257 119 577 1 308 -1 324 -77 478 -222 448 -736 666 -1238
525z m437 -456 c364 -109 483 -680 203 -980 -229 -247 -625 -171 -788 151 -56
111 -54 425 4 550 113 244 337 352 581 279z"/>
<path d="M14338 4204 c-262 -73 -535 -287 -612 -480 -19 -48 -52 -107 -73
-131 -30 -36 -38 -115 -38 -378 0 -327 1 -334 85 -502 84 -169 247 -355 371
-425 213 -118 241 -124 547 -133 300 -9 308 -8 462 69 192 95 236 131 353 285
105 137 97 188 -38 242 -46 17 -118 58 -162 90 -89 66 -183 78 -183 23 0 -87
-260 -264 -388 -264 -293 0 -512 259 -512 606 0 198 5 219 79 321 238 328 598
326 824 -4 l40 -59 135 93 c74 51 147 93 162 93 36 0 110 83 110 123 0 58
-149 221 -282 309 -239 158 -579 205 -880 122z"/>
<path d="M16413 4203 c-551 -153 -827 -678 -698 -1327 35 -177 238 -453 410
-558 48 -29 93 -60 100 -69 82 -106 714 -135 900 -41 228 115 275 147 359 245
169 198 265 462 266 733 0 183 -60 450 -116 516 -19 22 -34 51 -34 64 0 14
-39 71 -87 127 -256 298 -696 423 -1100 310z m568 -520 c182 -125 298 -491
210 -660 -18 -35 -40 -92 -49 -127 -21 -82 -130 -190 -238 -235 -215 -90 -482
0 -603 205 -72 123 -74 516 -2 656 121 238 456 317 682 161z"/>
<path d="M21541 4198 c-347 -113 -580 -380 -676 -777 -49 -206 -49 -263 5
-484 135 -556 488 -801 1126 -783 275 8 301 13 461 95 315 161 330 208 132
411 -157 161 -148 158 -249 82 -108 -81 -274 -142 -385 -142 -249 0 -565 209
-550 362 7 74 10 75 145 73 219 -3 1234 -12 1269 -11 40 1 43 394 3 494 -105
262 -290 532 -364 532 -12 0 -49 25 -83 56 -146 132 -566 178 -834 92z m542
-442 c43 -24 99 -69 125 -100 25 -31 63 -73 84 -95 21 -21 40 -74 42 -118 l4
-80 -462 -7 c-553 -9 -539 -12 -488 112 118 282 456 422 695 288z"/>
<path d="M25175 2875 c-144 -150 -275 -273 -290 -274 -15 -1 -81 -29 -147 -64
-90 -48 -127 -57 -152 -36 -42 35 -136 7 -136 -40 0 -20 12 -36 26 -36 15 0
19 -12 10 -27 -9 -15 -38 -22 -64 -15 -30 8 -57 -5 -72 -34 -16 -30 -51 -45
-101 -43 -42 1 -89 -11 -105 -27 -16 -16 -54 -29 -86 -29 -31 0 -68 -22 -82
-48 -17 -32 -51 -48 -100 -47 -41 2 -91 -11 -111 -28 -20 -17 -72 -35 -116
-40 -44 -6 -97 -25 -118 -42 -25 -21 -130 -32 -314 -33 -264 -2 -278 -5 -319
-63 -93 -132 -84 -190 37 -261 75 -45 122 -94 148 -158 20 -51 72 -119 116
-150 43 -32 91 -86 106 -119 29 -62 95 -84 95 -32 0 16 8 21 19 11 10 -11 19
-68 19 -128 1 -67 17 -127 44 -156 24 -26 43 -66 43 -88 0 -23 34 -76 75 -118
47 -48 75 -103 75 -146 0 -38 11 -80 24 -93 49 -49 34 -198 -30 -312 -116
-205 -143 -199 915 -199 l916 0 0 1575 c0 1244 -7 1575 -31 1574 -17 -1 -150
-124 -294 -274z"/>
<path d="M15694 2007 c-38 -19 -69 -50 -69 -69 0 -19 -10 -38 -22 -42 -12 -5
-29 -34 -39 -65 -21 -67 28 -95 124 -71 75 19 81 65 12 83 -59 15 -67 57 -12
57 32 0 104 122 81 137 -3 2 -37 -11 -75 -30z"/>
<path d="M10897 1939 c-59 -63 -74 -69 -109 -40 -28 24 -48 26 -67 7 -32 -32
-7 -81 43 -81 20 0 36 -11 36 -25 0 -49 94 -118 183 -135 154 -29 358 91 217
128 -57 15 -68 57 -15 57 40 0 67 81 40 125 -10 16 -73 32 -139 34 -103 3
-130 -7 -189 -70z"/>
<path d="M20600 2007 c-34 -7 -71 -28 -82 -47 -27 -47 -118 -45 -118 3 0 63
-90 41 -122 -30 -36 -78 0 -193 68 -222 86 -37 291 -37 317 -1 15 19 54 39 88
44 92 13 98 127 9 208 -37 35 -74 61 -82 60 -9 -2 -44 -9 -78 -15z"/>
<path d="M5150 1963 c0 -28 28 -38 100 -38 83 0 100 -8 100 -50 0 -33 17 -50
49 -50 26 0 55 -11 64 -25 23 -38 62 -30 62 13 0 20 -10 37 -22 37 -12 0 -28
34 -37 75 -14 73 -18 75 -165 75 -118 0 -151 -8 -151 -37z"/>
<path d="M5594 1969 c-22 -63 12 -119 71 -119 71 0 78 51 14 109 -54 49 -71
51 -85 10z"/>
<path d="M15434 1886 c-19 -49 3 -71 52 -53 22 9 32 31 23 54 -19 49 -56 49
-75 -1z"/>
<path d="M4956 1858 c-56 -22 -34 -83 30 -83 73 0 109 47 61 77 -38 24 -45 25
-91 6z"/>
<path d="M13381 1821 c12 -39 87 -86 106 -67 8 7 7 32 -2 55 -17 46 -120 57
-104 12z"/>
<path d="M17525 1775 c-23 -42 -19 -50 24 -50 34 0 51 16 51 50 0 27 -11 50
-24 50 -13 0 -36 -23 -51 -50z"/>
<path d="M9367 1783 c-30 -29 -18 -49 47 -79 83 -38 86 -37 86 18 0 60 -92
102 -133 61z"/>
<path d="M15341 1668 c-83 -72 -85 -118 -3 -118 106 0 205 128 122 160 -52 20
-43 23 -119 -42z"/>
<path d="M2378 1252 c-37 -23 -51 -895 -16 -951 22 -35 447 -33 566 3 55 16
136 72 190 130 l95 102 0 229 0 228 -132 128 -131 129 -236 0 c-129 0 -250 6
-268 12 -19 7 -49 2 -68 -10z m472 -224 c149 -42 217 -271 126 -421 -57 -92
-116 -113 -290 -102 l-123 8 -8 233 c-4 151 3 246 22 269 30 36 165 43 273 13z"/>
<path d="M5338 1251 l-275 -13 -16 -438 c-9 -245 -5 -457 7 -481 20 -39 64
-44 356 -44 361 0 384 10 347 150 -15 58 -6 56 -282 60 l-212 3 -8 93 c-9 106
-18 102 233 105 l175 2 7 93 8 94 -214 0 c-217 0 -228 5 -214 100 9 63 54 76
248 72 195 -5 252 25 252 133 0 37 -112 112 -133 90 -2 -3 -128 -11 -279 -19z"/>
<path d="M5944 1256 c-40 -9 -44 -53 -44 -497 l0 -487 106 8 107 8 -8 256 c-7
204 -1 256 26 256 32 0 150 -151 331 -420 65 -97 80 -107 161 -100 l90 8 6
480 7 481 -65 16 c-153 38 -180 -8 -166 -288 14 -291 -12 -321 -125 -145 -242
381 -310 449 -426 424z"/>
<path d="M8665 1236 c-22 -21 -32 -657 -16 -942 1 -11 118 -19 260 -19 291 0
391 29 512 149 198 199 130 659 -116 786 -87 44 -601 66 -640 26z m519 -220
c159 -67 190 -342 52 -461 -55 -48 -90 -56 -207 -50 l-141 8 -8 247 c-5 182 2
254 25 269 50 31 188 25 279 -13z"/>
<path d="M10492 1259 c-9 -9 -188 -18 -397 -19 l-380 -2 -1 -475 -1 -475 320
-13 c355 -14 392 -5 392 98 0 112 -46 132 -260 112 -207 -18 -265 3 -265 101
0 93 42 111 237 96 178 -13 181 -13 197 50 31 122 3 140 -218 148 -193 7 -204
11 -212 67 -12 85 32 102 253 103 l195 0 35 81 34 82 27 -71 c15 -39 27 -81
27 -94 0 -12 10 -23 22 -23 12 0 48 -82 80 -181 32 -100 69 -197 83 -215 14
-19 49 -103 79 -188 46 -134 62 -155 122 -162 123 -14 185 16 211 102 56 184
110 326 197 519 149 331 135 423 -53 351 -41 -15 -67 -50 -79 -105 -10 -45
-27 -99 -38 -120 -10 -21 -38 -89 -61 -151 -69 -184 -100 -237 -139 -237 -20
0 -40 27 -44 62 -4 34 -23 96 -42 138 -19 41 -53 139 -76 219 -50 172 -173
273 -245 202z"/>
<path d="M11763 1251 l-300 -13 0 -475 0 -475 348 -7 c357 -8 388 0 388 94 0
93 -40 110 -249 104 -221 -7 -275 15 -275 109 0 92 58 120 212 101 192 -24
238 -5 238 99 l0 85 -219 7 -218 8 0 75 0 75 204 1 c222 2 283 29 283 126 0
48 -75 124 -105 105 -4 -3 -142 -11 -307 -19z"/>
<path d="M12344 1258 c-40 -11 -44 -55 -44 -484 0 -557 -42 -505 400 -494
l288 8 8 70 c13 119 -32 146 -232 138 -257 -9 -249 -23 -228 386 21 405 8 428
-192 376z"/>
<path d="M13363 1254 c-201 -74 -353 -283 -346 -473 14 -348 323 -592 638
-505 391 108 466 706 118 932 -71 46 -332 76 -410 46z m356 -295 c118 -130 51
-407 -112 -461 -249 -82 -456 213 -307 440 82 125 314 137 419 21z"/>
<path d="M17066 1258 c-116 -19 -285 -212 -305 -348 -44 -294 41 -488 265
-605 201 -105 447 -35 582 166 61 90 71 130 72 286 4 365 -240 564 -614 501z
m308 -245 c9 -6 43 -61 74 -122 57 -111 57 -113 13 -230 -53 -137 -162 -201
-302 -174 -234 43 -287 432 -72 529 67 30 236 28 287 -3z"/>
<path d="M17872 1258 c-36 -9 -40 -68 -37 -489 l3 -479 79 -17 c141 -29 150
-9 133 321 -12 256 25 245 164 -44 122 -253 159 -256 277 -25 45 89 83 182 83
205 1 58 51 84 79 42 13 -19 20 -136 16 -259 l-6 -225 106 -8 106 -8 0 489 0
488 -60 15 c-95 24 -147 -22 -249 -218 -219 -426 -214 -425 -388 -73 -124 250
-178 314 -253 299 -7 -2 -31 -8 -53 -14z"/>
<path d="M19100 1251 c-31 -18 -37 -96 -34 -480 3 -252 5 -466 7 -475 5 -38
136 -47 172 -11 49 48 46 939 -3 970 -39 25 -96 24 -142 -4z"/>
<path d="M20104 1253 c-25 -16 -31 -82 -25 -266 10 -289 -14 -318 -124 -144
-219 346 -264 394 -376 402 l-105 8 7 -483 7 -482 108 -8 108 -8 -4 233 c-3
128 -4 247 -2 264 5 67 68 25 152 -100 228 -343 278 -397 360 -389 l78 8 15
462 c9 288 6 474 -10 494 -27 35 -139 41 -189 9z"/>
<path d="M20836 1256 c-69 -8 -81 -23 -123 -151 -25 -78 -78 -214 -117 -300
-39 -87 -71 -172 -71 -188 0 -16 -28 -86 -62 -154 -77 -156 -78 -187 -7 -191
138 -7 205 38 228 154 l15 74 188 0 c182 0 190 -2 218 -69 68 -158 163 -213
271 -155 46 24 45 31 -27 163 -41 75 -74 154 -74 175 0 21 -34 99 -75 174 -41
74 -75 150 -75 169 0 31 -43 138 -97 241 -24 45 -97 68 -192 58z m146 -442
c52 -142 38 -163 -113 -164 -102 0 -118 36 -71 155 13 32 29 78 37 103 26 82
99 35 147 -94z"/>
<path d="M21356 1247 c-38 -39 -40 -109 -5 -175 22 -40 48 -48 144 -42 l118 8
6 -361 c8 -379 21 -427 120 -427 88 0 143 69 126 160 -7 43 -16 194 -19 336
-5 283 10 316 132 290 84 -17 147 43 147 141 l0 73 -281 0 c-155 0 -321 7
-369 15 -55 9 -99 2 -119 -18z"/>
<path d="M22495 1257 c-290 -11 -265 42 -261 -532 l4 -437 343 -7 343 -7 15
60 c33 134 -20 169 -234 153 -205 -16 -239 -6 -265 79 -30 97 35 129 232 115
173 -12 176 -12 192 53 31 124 6 141 -214 141 -164 0 -205 8 -217 41 -37 94
24 122 270 122 l235 0 0 112 0 113 -100 1 c-55 1 -210 -2 -343 -7z"/>
<path d="M3369 1232 c-22 -44 -2 -909 22 -933 16 -16 158 -23 361 -19 l336 8
6 62 c12 119 -21 135 -266 128 l-226 -6 -17 68 c-30 120 13 148 208 140 190
-9 243 20 228 125 -8 54 -21 58 -208 65 -224 8 -252 22 -228 118 17 66 19 66
213 59 222 -9 284 20 272 126 l-7 65 -342 6 c-188 4 -347 -1 -352 -12z"/>
<path d="M4246 1244 c-2 -4 -6 -219 -8 -478 -5 -458 -3 -471 48 -495 35 -16
77 -15 124 3 70 27 71 30 55 167 -22 192 -3 209 210 191 170 -14 172 -13 189
52 28 114 -26 149 -206 134 -181 -14 -216 9 -203 137 l8 83 225 12 225 13 7
93 8 94 -339 0 c-186 0 -341 -3 -343 -6z"/>
<path d="M6918 1231 c-18 -31 -1 -898 18 -928 34 -55 513 -32 625 30 323 177
341 679 32 868 -83 50 -650 76 -675 30z m577 -238 c93 -76 130 -247 77 -351
-54 -106 -126 -141 -291 -141 l-156 -1 0 260 c0 185 9 265 31 275 47 20 302
-11 339 -42z"/>
<path d="M14149 1231 c-3 -30 -3 -890 -1 -925 1 -20 42 -31 115 -31 l112 0 0
138 c0 148 -5 144 167 138 231 -10 383 127 383 342 0 280 -109 357 -502 357
-150 0 -274 -8 -274 -19z m467 -196 c126 -34 115 -211 -16 -278 -153 -77 -250
-27 -250 130 0 151 82 197 266 148z"/>
<path d="M15731 769 l7 -481 275 -6 c452 -9 611 114 612 475 0 197 -37 286
-171 409 l-91 84 -320 0 -319 0 7 -481z m614 197 c83 -83 90 -317 12 -395 -96
-97 -366 -113 -393 -24 -19 62 -1 438 22 476 35 57 285 17 359 -57z"/>
<path d="M23121 583 c-23 -6 -60 -50 -83 -97 -53 -113 18 -236 136 -236 140 0
196 182 90 289 -63 62 -69 64 -143 44z"/>
<path d="M7900 494 c-61 -100 -61 -98 2 -178 93 -118 273 -47 273 107 0 151
-196 201 -275 71z"/>
<path d="M15002 509 c-62 -79 -65 -129 -13 -203 56 -80 192 -77 246 6 119 181
-100 367 -233 197z"/>
</g>
</svg>
