<?xml version="1.0" standalone="no"?>
<!DOCTYPE svg PUBLIC "-//W3C//DTD SVG 20010904//EN"
 "http://www.w3.org/TR/2001/REC-SVG-20010904/DTD/svg10.dtd">
<svg version="1.0" xmlns="http://www.w3.org/2000/svg"
 width="340.000000pt" height="313.000000pt" viewBox="0 0 340.000000 313.000000"
 preserveAspectRatio="xMidYMid meet">
<g transform="translate(0.000000,313.000000) scale(0.100000,-0.100000)"
fill="#000000" stroke="none">
<path d="M1370 2984 c-168 -51 -362 -110 -432 -131 l-128 -38 0 -273 0 -273
75 52 75 53 0 161 0 162 173 52 c309 94 341 103 432 133 127 40 155 43 208 23
60 -23 65 -20 93 50 33 80 34 78 -58 103 -110 30 -90 33 -438 -74z"/>
<path d="M1857 2662 c-70 -185 -154 -407 -186 -492 -196 -516 -258 -679 -302
-800 -28 -74 -52 -136 -55 -139 -8 -8 -164 152 -203 209 -47 68 -95 161 -111
217 -11 37 -25 52 -96 103 -100 73 -98 73 -89 3 32 -256 198 -505 474 -709 84
-63 111 -75 111 -53 0 11 110 305 360 964 67 176 173 457 237 625 63 168 121
319 128 337 l13 32 -68 20 c-37 12 -72 21 -77 21 -4 0 -65 -152 -136 -338z"/>
<path d="M2226 2921 c-4 -6 -17 -39 -30 -75 l-24 -64 62 -17 c33 -10 79 -23
101 -30 22 -7 59 -18 83 -25 l42 -13 0 -162 0 -161 75 -52 75 -52 0 273 0 273
-57 16 c-67 18 -280 84 -304 93 -10 3 -20 2 -23 -4z"/>
<path d="M1028 2306 c-152 -106 -297 -206 -322 -222 -25 -16 -46 -32 -46 -36
0 -3 48 -39 108 -79 59 -40 202 -139 319 -221 116 -81 214 -148 217 -148 3 0
6 42 6 93 l0 92 -190 128 c-105 71 -190 132 -190 135 1 4 86 65 190 135 l190
128 0 95 c0 51 -1 94 -2 94 -2 0 -128 -87 -280 -194z"/>
<path d="M2110 2407 l0 -94 189 -129 c105 -71 190 -132 190 -136 1 -4 -84 -65
-189 -135 l-189 -128 -1 -92 c0 -51 4 -93 8 -93 5 0 44 26 88 58 89 65 215
153 414 288 73 50 135 95 137 100 1 5 -48 43 -110 84 -61 41 -201 138 -312
216 -110 77 -206 143 -213 148 -9 5 -12 -15 -12 -87z"/>
<path d="M2515 1760 c-69 -50 -81 -64 -96 -106 -81 -239 -314 -473 -621 -622
l-88 -43 -91 46 c-50 25 -92 45 -94 43 -1 -2 -13 -35 -28 -74 l-26 -72 120
-56 120 -57 112 54 c347 167 589 386 707 641 53 114 99 308 73 305 -5 0 -44
-27 -88 -59z"/>
<path d="M430 513 c-36 -109 -70 -215 -77 -236 l-12 -38 36 3 36 3 78 230 c43
127 78 231 79 233 0 1 -17 2 -38 2 l-37 0 -65 -197z"/>
<path d="M1110 604 l0 -65 -22 15 c-28 20 -71 20 -112 1 -89 -42 -93 -205 -6
-250 35 -18 101 -20 119 -3 11 11 14 11 18 1 3 -7 20 -13 39 -13 l34 0 0 190
0 190 -35 0 -35 0 0 -66z m-16 -126 c32 -46 0 -128 -49 -128 -26 0 -65 46 -65
77 0 44 26 73 65 73 24 0 39 -7 49 -22z"/>
<path d="M667 643 c-3 -5 -30 -69 -60 -143 -31 -74 -63 -152 -71 -172 l-16
-38 40 0 c38 0 41 3 56 40 l16 40 78 0 77 0 12 -40 c11 -39 13 -40 55 -40 l44
0 -68 163 c-37 89 -70 170 -73 180 -7 17 -81 26 -90 10z m68 -143 c9 -25 19
-51 22 -57 4 -10 -9 -13 -46 -13 -59 0 -58 -3 -29 72 25 63 27 63 53 -2z"/>
<path d="M2420 471 l0 -181 89 0 c139 0 206 36 231 126 40 142 -37 226 -212
232 l-108 4 0 -181z m199 95 c31 -17 51 -54 51 -96 0 -70 -45 -110 -125 -110
l-45 0 0 110 0 110 45 0 c26 0 58 -6 74 -14z"/>
<path d="M200 551 c-103 -47 -105 -48 -105 -81 0 -34 1 -35 110 -82 130 -57
125 -57 125 -15 0 33 -3 35 -70 61 -91 36 -91 37 -4 70 72 28 74 30 74 62 0
43 -2 43 -130 -15z"/>
<path d="M3090 566 c0 -32 2 -34 75 -62 41 -16 75 -31 75 -34 0 -3 -34 -19
-75 -35 -72 -29 -75 -31 -75 -62 0 -41 -8 -42 127 14 l114 48 -3 34 c-3 33 -6
36 -113 83 -130 57 -125 57 -125 14z"/>
<path d="M1217 563 c-3 -5 19 -66 48 -138 l52 -130 39 -3 39 -3 50 128 c65
167 64 155 19 151 -36 -3 -37 -4 -68 -85 -41 -107 -38 -107 -76 -3 -32 89 -33
90 -66 90 -18 0 -35 -3 -37 -7z"/>
<path d="M1573 550 c-42 -25 -63 -68 -63 -128 0 -121 141 -178 230 -94 120
115 -26 308 -167 222z m121 -72 c32 -46 0 -128 -49 -128 -26 0 -65 46 -65 77
0 44 26 73 65 73 24 0 39 -7 49 -22z"/>
<path d="M1883 550 c-77 -47 -87 -167 -18 -227 51 -44 127 -47 174 -7 38 31
38 37 6 58 -24 16 -27 16 -52 -4 -33 -26 -49 -25 -78 5 -66 65 18 171 86 109
17 -15 20 -15 44 0 76 50 -83 115 -162 66z"/>
<path d="M2163 550 c-87 -52 -95 -161 -17 -230 88 -77 224 -9 224 112 0 105
-118 173 -207 118z m123 -84 c33 -69 -28 -140 -85 -99 -57 43 -33 133 36 133
28 0 36 -5 49 -34z"/>
<path d="M2870 563 c-104 -38 -116 -208 -19 -259 54 -27 179 -8 179 28 0 31
-30 46 -61 31 -43 -22 -109 -2 -109 33 0 11 21 14 95 14 95 0 95 0 95 25 0 91
-95 159 -180 128z m90 -73 c32 -32 24 -40 -40 -40 -64 0 -73 9 -43 42 21 24
58 23 83 -2z"/>
<path d="M312 108 l3 -63 41 -3 c35 -3 45 1 63 24 40 51 7 104 -65 104 l-45 0
3 -62z m87 15 c12 -23 -4 -53 -29 -53 -16 0 -20 7 -20 35 0 39 30 50 49 18z"/>
<path d="M450 105 l0 -65 50 0 c38 0 50 4 50 15 0 10 -11 15 -35 15 -19 0 -35
5 -35 10 0 6 14 10 30 10 20 0 30 5 30 15 0 10 -10 15 -30 15 -40 0 -39 18 2
22 55 5 46 28 -11 28 l-51 0 0 -65z"/>
<path d="M570 105 c0 -51 3 -65 15 -65 9 0 15 9 15 25 0 20 5 25 25 25 14 0
25 5 25 10 0 6 -11 10 -25 10 -16 0 -25 6 -25 15 0 10 10 15 30 15 20 0 30 5
30 15 0 11 -12 15 -45 15 l-45 0 0 -65z"/>
<path d="M674 156 c-3 -7 -4 -35 -2 -62 l3 -49 48 -3 c37 -2 47 0 47 12 0 11
-10 16 -30 16 -16 0 -30 5 -30 10 0 6 11 10 25 10 16 0 25 6 25 15 0 9 -9 15
-25 15 -33 0 -32 18 2 22 14 2 28 9 31 16 6 18 -87 17 -94 -2z"/>
<path d="M790 105 c0 -51 3 -65 15 -65 10 0 15 10 15 33 l1 32 28 -33 c41 -48
51 -42 51 33 0 51 -3 65 -15 65 -11 0 -15 -11 -15 -37 l0 -38 -27 38 c-40 56
-53 49 -53 -28z"/>
<path d="M922 108 c3 -61 4 -63 32 -66 68 -8 112 38 85 90 -17 32 -28 38 -77
38 l-43 0 3 -62z m87 14 c13 -25 -5 -52 -34 -52 -22 0 -25 5 -25 35 0 40 40
52 59 17z"/>
<path d="M1154 156 c-3 -7 -4 -35 -2 -62 l3 -49 40 -3 c54 -4 79 16 79 63 0
25 -6 42 -19 51 -25 18 -94 18 -101 0z m85 -33 c12 -23 -4 -53 -29 -53 -16 0
-20 7 -20 35 0 39 30 50 49 18z"/>
<path d="M1300 105 l0 -65 45 0 c33 0 45 4 45 15 0 10 -10 15 -30 15 -16 0
-30 5 -30 10 0 6 11 10 25 10 16 0 25 6 25 15 0 9 -9 15 -25 15 -14 0 -25 5
-25 10 0 6 10 10 23 10 13 0 28 5 34 11 7 7 17 -8 33 -50 13 -35 28 -61 36
-61 13 0 64 98 64 121 0 26 -29 3 -44 -33 l-18 -43 -16 43 -16 42 -63 0 -63 0
0 -65z"/>
<path d="M1530 105 l0 -65 50 0 c38 0 50 4 50 15 0 10 -11 15 -35 15 -19 0
-35 5 -35 10 0 6 14 10 30 10 20 0 30 5 30 15 0 10 -10 15 -30 15 -40 0 -39
18 2 22 55 5 46 28 -11 28 l-51 0 0 -65z"/>
<path d="M1640 104 l0 -65 48 3 c49 3 61 21 17 26 -23 3 -25 7 -25 53 0 42 -3
49 -20 49 -18 0 -20 -7 -20 -66z"/>
<path d="M1756 148 c-34 -48 -4 -108 53 -108 33 0 61 30 61 65 0 60 -81 90
-114 43z m79 -19 c14 -22 -5 -59 -29 -59 -26 0 -40 23 -31 51 7 21 49 26 60 8z"/>
<path d="M1890 105 c0 -51 3 -65 15 -65 8 0 15 9 15 19 0 15 8 21 31 23 71 7
51 88 -22 88 l-39 0 0 -65z m68 18 c-5 -26 -38 -29 -38 -4 0 15 6 21 21 21 14
0 19 -5 17 -17z"/>
<path d="M2100 105 l0 -65 38 0 c52 0 82 23 82 64 0 44 -26 66 -78 66 l-42 0
0 -65z m85 0 c0 -25 -4 -30 -27 -33 -26 -3 -28 -1 -28 33 0 34 2 36 28 33 23
-3 27 -8 27 -33z"/>
<path d="M2256 155 c-45 -45 -18 -114 45 -115 53 0 80 77 41 113 -23 21 -66
22 -86 2z m69 -50 c0 -35 -31 -47 -51 -20 -18 25 0 57 29 53 17 -2 22 -10 22
-33z"/>
<path d="M2380 105 c0 -71 25 -97 32 -32 l4 32 13 -27 c18 -35 22 -35 43 0
l17 27 1 -32 c0 -23 5 -33 15 -33 12 0 15 14 15 65 0 76 -16 86 -46 30 -10
-19 -21 -35 -24 -35 -4 0 -14 16 -23 35 -28 58 -47 46 -47 -30z"/>
<path d="M2540 111 c0 -56 13 -84 29 -65 13 16 0 124 -15 124 -10 0 -14 -15
-14 -59z"/>
<path d="M2600 105 c0 -74 26 -97 32 -28 l3 37 25 -37 c38 -55 50 -48 50 28 0
51 -3 65 -15 65 -11 0 -15 -11 -15 -37 l0 -38 -25 38 c-40 57 -55 50 -55 -28z"/>
<path d="M2748 108 c-25 -60 -21 -92 7 -54 15 20 49 21 65 1 32 -38 38 -14 12
50 -33 85 -50 85 -84 3z m52 -3 c0 -8 -4 -15 -10 -15 -5 0 -10 7 -10 15 0 8 5
15 10 15 6 0 10 -7 10 -15z"/>
<path d="M2850 155 c0 -8 9 -15 20 -15 17 0 20 -7 20 -50 0 -38 4 -50 15 -50
11 0 15 12 15 49 0 40 3 50 20 54 41 11 20 27 -35 27 -42 0 -55 -3 -55 -15z"/>
<path d="M2970 105 l0 -65 45 0 c33 0 45 4 45 15 0 10 -10 15 -30 15 -16 0
-30 5 -30 10 0 6 11 10 25 10 16 0 25 6 25 15 0 9 -9 15 -25 15 -14 0 -25 5
-25 10 0 6 14 10 30 10 20 0 30 5 30 15 0 11 -12 15 -45 15 l-45 0 0 -65z"/>
<path d="M1055 71 c-8 -15 3 -31 21 -31 9 0 14 7 12 17 -4 20 -24 28 -33 14z"/>
<path d="M2007 74 c-14 -14 -7 -35 11 -32 9 2 17 10 17 17 0 16 -18 25 -28 15z"/>
<path d="M3075 70 c-8 -14 3 -30 21 -30 8 0 14 9 14 20 0 21 -24 28 -35 10z"/>
</g>
</svg>
